# xmcd
# 
# Track frame offsets:
#   150
#   13100
#   25890
#   39542
#   55400
#   69815
#   82400
#   94625
#   108530
#   121417
#   133290
#   146535
#   159757
#   172932
#   185782
# 
# Disc length: 2658 seconds
# 
# Revision: 2
# Processed by: cddbd v1.5.2PL0 Copyright (c) Steve Scherf et al.
# Submitted via: Synapstar 1.0 
# 
DISCID=ce0a600f
DTITLE=Various Artist - The Brick 3 SC 7567
DYEAR=1900
DGENRE=Country
TTITLE0=Jimmy Dickens - May the Bird of Paradise Fly Up Your Nose
TTITLE1=Hank Locklin - Send Me the Pillow That You Dream On
TTITLE2=Roy Clark - Tips of My Fingers
TTITLE3=Marty Robbins - I Walk Alone
TTITLE4=Patsy Cline - Imagine That
TTITLE5=Jody Miller - Queen of the House
TTITLE6=Tammy Wynette - The Ways to Love a Man
TTITLE7=Eddy Arnold - Just a Little Lovin'
TTITLE8=Hank Williams - Settin' the Woods on Fire
TTITLE9=Lefty Frizzell - She's Gone Gone Gone
TTITLE10=George Jones - You Comb Her Hair
TTITLE11=Kitty Wells - Amigo's Guitar
TTITLE12=George Jones - A Girl I Used to Know
TTITLE13=Wanda Jackson - In the Middle of a Heartache
TTITLE14=Tex Williams - Smoke! Smoke! Smoke!
EXTD=MediaType: Karaoke CD+G Producer: Sound Choice
EXTT0=
EXTT1=
EXTT2=
EXTT3=
EXTT4=
EXTT5=
EXTT6=
EXTT7=
EXTT8=
EXTT9=
EXTT10=
EXTT11=
EXTT12=
EXTT13=
EXTT14=
PLAYORDER=
